<?xml version="1.0" encoding="UTF-8" standalone="no"?>
<!DOCTYPE svg PUBLIC "-//W3C//DTD SVG 1.1//EN" "http://www.w3.org/Graphics/SVG/1.1/DTD/svg11.dtd">
<!-- Created with Vectornator (http://vectornator.io/) -->
<svg height="100%" stroke-miterlimit="10" style="fill-rule:nonzero;clip-rule:evenodd;stroke-linecap:round;stroke-linejoin:round;" version="1.1" viewBox="0 0 1024 1024" width="100%" xml:space="preserve" xmlns="http://www.w3.org/2000/svg" xmlns:vectornator="http://vectornator.io" xmlns:xlink="http://www.w3.org/1999/xlink">
<defs/>
<g id="レイヤー-1" vectornator:layerName="レイヤー 1">
<g opacity="1" vectornator:layerName="グループ 1">
<path d="M711.492 106.329L763.576 136.4L763.576 136.4L523.007 553.078L523.007 553.078L470.922 523.007L470.922 523.007L711.492 106.329L711.492 106.329Z" fill="#dbe3de" fill-rule="nonzero" opacity="1" stroke="none" vectornator:layerName="rect"/>
<path d="M971.915 256.684L1024 286.755L1024 286.755L783.431 703.434L783.431 703.434L731.346 673.362L731.346 673.362L971.915 256.684L971.915 256.684Z" fill="#dbe3de" fill-rule="nonzero" opacity="1" stroke="none" vectornator:layerName="rect"/>
<path d="M1024 286.755L993.929 338.84L993.929 338.84L681.42 158.413L681.42 158.413L711.491 106.328L711.491 106.328L1024 286.755L1024 286.755Z" fill="#dbe3de" fill-rule="nonzero" opacity="1" stroke="none" vectornator:layerName="rect"/>
<path d="M813.502 651.349L783.431 703.434L783.431 703.434L470.922 523.007L470.922 523.007L500.993 470.922L500.993 470.922L813.502 651.349L813.502 651.349Z" fill="#dbe3de" fill-rule="nonzero" opacity="1" stroke="none" vectornator:layerName="rect"/>
<path d="M703.434 240.57L673.363 292.654L673.363 292.654L256.684 52.085L256.684 52.085L286.756 0.000205782L286.756 0.000205782L703.434 240.57L703.434 240.57Z" fill="#dbe3de" fill-rule="nonzero" opacity="1" stroke="none" vectornator:layerName="rect"/>
<path d="M553.078 500.993L523.007 553.078L523.007 553.078L106.329 312.509L106.329 312.509L136.4 260.424L136.4 260.424L553.078 500.993L553.078 500.993Z" fill="#dbe3de" fill-rule="nonzero" opacity="1" stroke="none" vectornator:layerName="rect"/>
<path d="M523.007 553.078L470.922 523.007L470.922 523.007L651.349 210.498L651.349 210.498L703.434 240.569L703.434 240.569L523.007 553.078L523.007 553.078Z" fill="#dbe3de" fill-rule="nonzero" opacity="1" stroke="none" vectornator:layerName="rect"/>
<path d="M158.413 342.58L106.329 312.509L106.329 312.509L286.756 0L286.756 0L338.84 30.0712L338.84 30.0712L158.413 342.58L158.413 342.58Z" fill="#dbe3de" fill-rule="nonzero" opacity="1" stroke="none" vectornator:layerName="rect"/>
<path d="M240.569 320.566L292.654 350.638L292.654 350.638L52.0849 767.316L52.0849 767.316L9.40429e-05 737.245L9.40429e-05 737.245L240.569 320.566L240.569 320.566Z" fill="#dbe3de" fill-rule="nonzero" opacity="1" stroke="none" vectornator:layerName="rect"/>
<path d="M500.993 470.922L553.078 500.993L553.078 500.993L312.509 917.672L312.509 917.672L260.424 887.6L260.424 887.6L500.993 470.922L500.993 470.922Z" fill="#dbe3de" fill-rule="nonzero" opacity="1" stroke="none" vectornator:layerName="rect"/>
<path d="M553.078 500.993L523.007 553.078L523.007 553.078L210.498 372.651L210.498 372.651L240.569 320.566L240.569 320.566L553.078 500.993L553.078 500.993Z" fill="#dbe3de" fill-rule="nonzero" opacity="1" stroke="none" vectornator:layerName="rect"/>
<path d="M342.58 865.587L312.509 917.672L312.509 917.672L1.42109e-13 737.245L1.42109e-13 737.245L30.0712 685.16L30.0712 685.16L342.58 865.587L342.58 865.587Z" fill="#dbe3de" fill-rule="nonzero" opacity="1" stroke="none" vectornator:layerName="rect"/>
<path d="M917.672 711.492L887.6 763.576L887.6 763.576L470.922 523.007L470.922 523.007L500.993 470.922L500.993 470.922L917.672 711.492L917.672 711.492Z" fill="#dbe3de" fill-rule="nonzero" opacity="1" stroke="none" vectornator:layerName="rect"/>
<path d="M767.316 971.915L737.245 1024L737.245 1024L320.567 783.431L320.567 783.431L350.638 731.346L350.638 731.346L767.316 971.915L767.316 971.915Z" fill="#dbe3de" fill-rule="nonzero" opacity="1" stroke="none" vectornator:layerName="rect"/>
<path d="M737.245 1024L685.16 993.929L685.16 993.929L865.587 681.42L865.587 681.42L917.672 711.491L917.672 711.491L737.245 1024L737.245 1024Z" fill="#dbe3de" fill-rule="nonzero" opacity="1" stroke="none" vectornator:layerName="rect"/>
<path d="M372.651 813.502L320.566 783.43L320.566 783.43L500.993 470.922L500.993 470.922L553.078 500.993L553.078 500.993L372.651 813.502L372.651 813.502Z" fill="#dbe3de" fill-rule="nonzero" opacity="1" stroke="none" vectornator:layerName="rect"/>
</g>
</g>
</svg>
