<?xml version="1.0" encoding="UTF-8" standalone="no"?>
<!DOCTYPE svg PUBLIC "-//W3C//DTD SVG 1.1//EN" "http://www.w3.org/Graphics/SVG/1.1/DTD/svg11.dtd">
<!-- Created with Vectornator (http://vectornator.io/) -->
<svg height="100%" stroke-miterlimit="10" style="fill-rule:nonzero;clip-rule:evenodd;stroke-linecap:round;stroke-linejoin:round;" version="1.1" viewBox="0 0 1024 1024" width="100%" xml:space="preserve" xmlns="http://www.w3.org/2000/svg" xmlns:vectornator="http://vectornator.io" xmlns:xlink="http://www.w3.org/1999/xlink">
<defs/>
<g id="レイヤー-1" vectornator:layerName="レイヤー 1">
<g opacity="1" vectornator:layerName="グループ 1">
<path d="M609.408 207.821L634.84 222.504L634.84 222.504L517.375 425.961L517.375 425.961L491.943 411.277L491.943 411.277L609.408 207.821L609.408 207.821Z" fill="#656565" fill-rule="nonzero" opacity="1" stroke="none" vectornator:layerName="rect"/>
<path d="M736.568 281.237L762 295.92L762 295.92L644.535 499.376L644.535 499.376L619.103 484.693L619.103 484.693L736.568 281.237L736.568 281.237Z" fill="#656565" fill-rule="nonzero" opacity="1" stroke="none" vectornator:layerName="rect"/>
<path d="M762 295.92L747.317 321.352L747.317 321.352L594.725 233.253L594.725 233.253L609.408 207.821L609.408 207.821L762 295.92L762 295.92Z" fill="#656565" fill-rule="nonzero" opacity="1" stroke="none" vectornator:layerName="rect"/>
<path d="M659.218 473.945L644.534 499.377L644.534 499.377L491.942 411.277L491.942 411.277L506.626 385.845L506.626 385.845L659.218 473.945L659.218 473.945Z" fill="#656565" fill-rule="nonzero" opacity="1" stroke="none" vectornator:layerName="rect"/>
<path d="M605.474 273.369L590.79 298.801L590.79 298.801L387.334 181.335L387.334 181.335L402.017 155.903L402.017 155.903L605.474 273.369L605.474 273.369Z" fill="#656565" fill-rule="nonzero" opacity="1" stroke="none" vectornator:layerName="rect"/>
<path d="M532.058 400.529L517.374 425.961L517.374 425.961L313.918 308.495L313.918 308.495L328.601 283.063L328.601 283.063L532.058 400.529L532.058 400.529Z" fill="#656565" fill-rule="nonzero" opacity="1" stroke="none" vectornator:layerName="rect"/>
<path d="M517.374 425.961L491.942 411.277L491.942 411.277L580.042 258.685L580.042 258.685L605.474 273.369L605.474 273.369L517.374 425.961L517.374 425.961Z" fill="#656565" fill-rule="nonzero" opacity="1" stroke="none" vectornator:layerName="rect"/>
<path d="M339.35 323.178L313.918 308.495L313.918 308.495L402.017 155.903L402.017 155.903L427.449 170.586L427.449 170.586L339.35 323.178L339.35 323.178Z" fill="#656565" fill-rule="nonzero" opacity="1" stroke="none" vectornator:layerName="rect"/>
<path d="M379.466 312.43L404.898 327.113L404.898 327.113L287.432 530.569L287.432 530.569L262 515.886L262 515.886L379.466 312.43L379.466 312.43Z" fill="#656565" fill-rule="nonzero" opacity="1" stroke="none" vectornator:layerName="rect"/>
<path d="M506.626 385.846L532.058 400.529L532.058 400.529L414.592 603.985L414.592 603.985L389.16 589.302L389.16 589.302L506.626 385.846L506.626 385.846Z" fill="#656565" fill-rule="nonzero" opacity="1" stroke="none" vectornator:layerName="rect"/>
<path d="M532.058 400.529L517.374 425.961L517.374 425.961L364.782 337.862L364.782 337.862L379.466 312.43L379.466 312.43L532.058 400.529L532.058 400.529Z" fill="#656565" fill-rule="nonzero" opacity="1" stroke="none" vectornator:layerName="rect"/>
<path d="M429.275 578.553L414.592 603.985L414.592 603.985L262 515.886L262 515.886L276.683 490.454L276.683 490.454L429.275 578.553L429.275 578.553Z" fill="#656565" fill-rule="nonzero" opacity="1" stroke="none" vectornator:layerName="rect"/>
<path d="M710.082 503.311L695.399 528.743L695.399 528.743L491.942 411.278L491.942 411.278L506.626 385.846L506.626 385.846L710.082 503.311L710.082 503.311Z" fill="#656565" fill-rule="nonzero" opacity="1" stroke="none" vectornator:layerName="rect"/>
<path d="M636.666 630.471L621.983 655.903L621.983 655.903L418.527 538.437L418.527 538.437L433.21 513.005L433.21 513.005L636.666 630.471L636.666 630.471Z" fill="#656565" fill-rule="nonzero" opacity="1" stroke="none" vectornator:layerName="rect"/>
<path d="M621.983 655.903L596.551 641.22L596.551 641.22L684.65 488.628L684.65 488.628L710.082 503.311L710.082 503.311L621.983 655.903L621.983 655.903Z" fill="#656565" fill-rule="nonzero" opacity="1" stroke="none" vectornator:layerName="rect"/>
<path d="M443.959 553.121L418.527 538.437L418.527 538.437L506.626 385.845L506.626 385.845L532.058 400.528L532.058 400.528L443.959 553.121L443.959 553.121Z" fill="#656565" fill-rule="nonzero" opacity="1" stroke="none" vectornator:layerName="rect"/>
</g>
<g fill="#656565" opacity="1" stroke="none" vectornator:layerName="Text 1">
<path d="M191.829 783.105C192.425 787.176 192.822 789.062 193.716 791.345C195.602 796.21 198.481 799.982 202.452 802.663C207.218 805.84 215.16 807.825 223.301 807.825C233.923 807.825 241.766 805.343 247.028 800.28C251.098 796.21 253.282 790.452 253.282 783.403C253.282 775.957 250.701 770.497 245.042 766.327C241.468 763.845 236.703 761.959 228.86 760.271C217.84 757.789 217.046 757.591 214.862 756.697C210.295 754.712 208.111 751.833 208.111 747.663C208.111 741.21 213.968 736.842 222.606 736.842C228.066 736.842 232.434 738.53 235.015 741.607C236.703 743.593 237.398 745.28 237.994 748.656L252.19 746.968C250.999 741.706 249.808 738.728 247.326 735.452C242.461 728.9 233.923 725.425 222.606 725.425C205.53 725.425 194.411 734.36 194.411 748.16C194.411 754.811 196.992 760.271 202.055 764.243C205.629 767.022 209.6 768.611 217.046 770.298C230.746 773.475 231.342 773.575 234.32 775.163C237.398 776.851 239.284 780.226 239.284 784.297C239.284 791.742 233.328 796.21 223.4 796.21C216.947 796.21 211.784 794.125 208.905 790.353C207.118 788.069 206.523 786.084 206.125 781.616L191.829 783.105Z"/>
<path d="M318.706 779.631C317.912 784.197 317.118 786.282 315.43 788.764C312.253 793.43 306.297 796.111 299.347 796.111C285.448 796.111 276.712 784.793 276.712 766.625C276.712 748.358 285.25 737.338 299.347 737.338C305.502 737.338 310.466 739.423 313.842 743.493C315.827 745.777 316.721 747.663 318.111 752.031L331.91 748.854C330.719 745.082 330.024 743.295 328.833 741.21C326.351 736.842 322.777 733.169 318.309 730.389C312.849 727.113 306.992 725.623 299.248 725.623C289.32 725.623 280.385 728.999 274.429 735.055C266.983 742.501 262.813 754.017 262.813 767.122C262.813 779.829 266.685 791.047 273.634 798.295C279.69 804.549 288.327 807.825 299.149 807.825C311.062 807.825 320.593 803.954 326.251 797.004C329.23 793.132 331.017 789.26 332.903 782.112L318.706 779.631Z"/>
<path d="M411.531 806.237C410.935 802.762 410.737 798.99 410.737 793.43L410.737 740.912C410.737 734.856 410.935 731.183 411.531 727.212L397.036 727.212C397.632 730.984 397.831 735.055 397.831 740.912L397.831 774.27C397.831 778.439 398.129 784.396 398.526 788.268C396.342 784.297 393.165 779.134 390.782 775.56L365.665 737.735C362.289 732.672 360.502 729.694 359.609 727.212L344.121 727.212C344.717 731.282 344.916 734.856 344.916 740.019L344.916 791.246C344.916 797.997 344.618 802.961 344.121 806.237L358.616 806.237C358.12 802.663 357.822 797.997 357.822 791.345L357.822 758.782C357.822 756.499 357.623 752.031 357.524 750.145C357.226 746.472 357.226 746.472 357.127 745.082C359.509 749.748 361.991 754.017 363.878 756.995L389.491 795.614C392.37 799.982 394.157 802.862 395.845 806.237L411.531 806.237Z"/>
<path d="M473.381 806.237C472.785 802.464 472.587 798.692 472.587 793.331L472.587 776.751L491.549 776.751C501.079 776.751 507.83 774.468 512.695 769.604C517.063 765.037 519.347 758.882 519.347 751.336C519.347 744.188 517.262 738.232 513.191 734.261C508.426 729.495 501.675 727.212 492.045 727.212L471.296 727.212C466.034 727.212 462.957 727.113 458.688 726.914C459.284 731.382 459.482 734.956 459.482 739.721L459.482 793.43C459.482 798.791 459.284 802.266 458.688 806.237L473.381 806.237ZM472.587 765.335L472.587 738.629L491.549 738.629C496.811 738.629 500.087 739.721 502.37 742.203C504.554 744.486 505.646 747.762 505.646 751.734C505.646 760.47 500.682 765.335 491.549 765.335L472.587 765.335Z"/>
<path d="M569.978 749.252C565.511 748.457 563.128 748.16 560.745 748.16C551.81 748.16 545.655 751.535 542.081 758.584L542.081 749.252L528.579 749.252C529.175 753.322 529.274 756.102 529.274 762.158L529.274 793.331C529.274 798.493 529.076 801.372 528.579 806.237L542.776 806.237C542.28 801.571 542.081 798.692 542.081 793.331L542.081 774.964C542.677 770.199 543.67 767.916 546.152 765.037C548.931 761.761 552.704 760.172 557.668 760.172C560.249 760.172 562.334 760.569 566.503 761.761L569.978 749.252Z"/>
<path d="M604.527 808.123C622.198 808.123 633.814 796.011 633.814 777.645C633.814 759.279 622.397 747.564 604.428 747.564C586.359 747.564 574.843 759.378 574.843 777.844C574.843 796.408 586.359 808.123 604.527 808.123ZM604.428 757.889C614.951 757.889 621.007 765.235 621.007 778.042C621.007 790.154 614.653 797.6 604.328 797.6C594.003 797.6 587.65 790.055 587.65 777.844C587.65 765.434 594.003 757.889 604.428 757.889Z"/>
<path d="M647.117 749.252C647.713 753.024 647.911 756.4 647.911 762.158L647.911 808.917C647.911 813.584 645.926 815.768 641.756 815.768C638.48 815.768 636.296 814.179 634.509 810.804L623.191 817.356C625.375 820.136 626.666 821.327 629.048 822.717C632.523 824.703 636.593 825.695 641.359 825.695C646.918 825.695 651.882 824.306 655.158 821.923C659.03 819.044 660.817 814.973 660.817 809.116L660.817 762.158C660.817 756.4 660.917 753.521 661.512 749.252L647.117 749.252ZM647.117 727.212L647.117 739.82L661.711 739.82L661.711 727.212L647.117 727.212Z"/>
<path d="M727.83 781.02C727.631 778.737 727.631 778.439 727.631 778.241C727.333 771.49 726.638 767.916 724.752 763.15C720.781 753.223 711.647 747.465 700.032 747.465C683.055 747.465 672.036 759.477 672.036 777.844C672.036 796.408 683.155 808.123 700.727 808.123C709.066 808.123 716.016 805.542 721.178 800.479C723.66 797.997 724.951 796.111 727.234 791.345L715.519 787.573C714.526 790.253 713.832 791.345 712.64 792.735C709.761 795.912 705.591 797.699 700.727 797.699C695.664 797.699 691.196 795.714 688.317 792.14C686.034 789.26 685.14 786.481 684.644 781.02L727.83 781.02ZM684.942 771.192C686.431 762.853 692.09 757.69 699.833 757.69C704.499 757.69 707.875 758.981 710.555 761.661C713.037 764.143 714.229 766.824 714.924 771.192L684.942 771.192Z"/>
<path d="M789.382 765.434C787.992 761.761 787.198 760.172 785.907 758.187C781.142 751.237 773.398 747.465 763.669 747.465C755.528 747.465 748.579 750.046 743.714 755.01C738.254 760.569 735.276 768.611 735.276 777.943C735.276 796.309 746.593 808.123 764.066 808.123C773.497 808.123 781.142 804.649 785.907 798.096C787.694 795.714 788.687 793.629 790.077 789.658L777.766 787.176C777.171 789.658 776.674 790.75 775.781 792.14C773.299 795.714 769.328 797.699 764.364 797.699C754.337 797.699 748.182 790.055 748.182 777.645C748.182 765.335 754.238 757.69 763.967 757.69C768.335 757.69 771.81 759.279 774.192 762.257C775.483 763.845 776.178 765.235 777.27 768.313L789.382 765.434Z"/>
<path d="M806.358 733.963C806.755 737.537 807.053 741.905 807.053 746.174L807.053 749.252L803.38 749.252C799.21 749.252 797.324 749.152 794.445 748.656L794.445 760.371C797.721 759.874 799.607 759.775 803.281 759.775L807.053 759.775L807.053 793.132C807.053 803.556 811.62 807.627 823.037 807.627C828.199 807.627 831.178 807.13 835.447 805.542L833.66 795.019C830.582 796.706 828.994 797.203 826.412 797.203C821.647 797.203 819.86 795.416 819.86 790.551L819.86 759.775L824.328 759.775C828.894 759.775 830.781 759.874 834.057 760.371L834.057 748.656C830.88 749.152 828.696 749.252 824.03 749.252L819.86 749.252L819.86 746.174C819.86 741.706 820.158 737.438 820.555 733.963L806.358 733.963Z"/>
</g>
</g>
</svg>
